<svg height="512" viewBox="0 0 512 512" width="512" xmlns="http://www.w3.org/2000/svg"><g id="Flat"><circle cx="160" cy="248" fill="#4d5e78" r="32"/><circle cx="352" cy="248" fill="#4d5e78" r="32"/><path d="m224 184h64v32h-64z" fill="#485870"/><path d="m160 216h192v112h-192z" fill="#e0e0de"/><path d="m256 464 160-48v-184l-137.012 41.1a32.256 32.256 0 0 0 -22.988 30.9z" fill="#dfcdb3"/><path d="m256 464-160-48v-184l137.012 41.1a32.256 32.256 0 0 1 22.988 30.9z" fill="#dfcdb3"/><path d="m232 304v184l-104.16-31.25-55.84-16.75v-184z" fill="#92563a"/><path d="m232 304h48v184h-48z" fill="#804a32"/><path d="m440 440-160 48v-184l160-48z" fill="#78462f"/><path d="m232 354.33v133.67l-104.16-31.25z" fill="#875036"/><path d="m24 344h64a16 16 0 0 1 16 16v32a16 16 0 0 1 -16 16h-48a16 16 0 0 1 -16-16v-48a0 0 0 0 1 0 0z" fill="#e0e0de"/><path d="m40 312h32a0 0 0 0 1 0 0v32a0 0 0 0 1 0 0h-48a0 0 0 0 1 0 0v-16a16 16 0 0 1 16-16z" fill="#cfcfcd"/><path d="m424 344h48a16 16 0 0 1 16 16v32a16 16 0 0 1 -16 16h-64a0 0 0 0 1 0 0v-48a16 16 0 0 1 16-16z" fill="#e0e0de" transform="matrix(-1 0 0 -1 896 752)"/><path d="m440 312h48a0 0 0 0 1 0 0v32a0 0 0 0 1 0 0h-32a16 16 0 0 1 -16-16v-16a0 0 0 0 1 0 0z" fill="#cfcfcd" transform="matrix(-1 0 0 -1 928 656)"/><g fill="#348fd9"><path d="m248 240h16v16h-16z"/><path d="m216 240h16v16h-16z"/><path d="m280 240h16v16h-16z"/></g><path d="m352 80v104h-32v-32h-128v32h-32v-104a55.993 55.993 0 0 1 56-56h80a55.995 55.995 0 0 1 56 56z" fill="#e0e0de"/><path d="m352 80v104h-32v-32h-128v32h-32v-16.06c59.69-29.61 114.65-74.39 158.89-139.05a55.977 55.977 0 0 1 33.11 51.11z" fill="#dbdbd9"/><path d="m320 184h-128v-96a16 16 0 0 1 16-16h96a16 16 0 0 1 16 16z" fill="#4d5e78"/><path d="m304 72h-96a16 16 0 0 0 -16 16h128a16 16 0 0 0 -16-16z" fill="#485870"/><path d="m144 88h16a0 0 0 0 1 0 0v96a0 0 0 0 1 0 0h-16a16 16 0 0 1 -16-16v-64a16 16 0 0 1 16-16z" fill="#d6d6d4"/><path d="m352 88h16a16 16 0 0 1 16 16v64a16 16 0 0 1 -16 16h-16a0 0 0 0 1 0 0v-96a0 0 0 0 1 0 0z" fill="#d6d6d4"/><circle cx="216" cy="128" fill="#348fd9" r="24"/><circle cx="296" cy="128" fill="#348fd9" r="24"/></g></svg>