<?xml version="1.0" encoding="UTF-8" standalone="no"?>
<!DOCTYPE svg PUBLIC "-//W3C//DTD SVG 1.1//EN" "http://www.w3.org/Graphics/SVG/1.1/DTD/svg11.dtd">
<svg version="1.1" xmlns="http://www.w3.org/2000/svg" xmlns:xlink="http://www.w3.org/1999/xlink" preserveAspectRatio="xMidYMid meet" viewBox="0 0 640 640" width="640" height="640"><defs><path d="M210.38 325.13C199.82 325.13 191.25 333.69 191.25 344.25C191.25 354.81 199.82 363.38 210.38 363.38C229.5 363.38 382.5 363.38 401.63 363.38C412.18 363.38 420.75 354.81 420.75 344.25C420.75 333.69 412.18 325.13 401.63 325.13C363.38 325.13 229.5 325.13 210.38 325.13ZM172.13 210.38C161.57 210.38 153 218.94 153 229.5C153 240.06 161.57 248.63 172.13 248.63C198.9 248.63 413.1 248.63 439.88 248.63C450.43 248.63 459 240.06 459 229.5C459 218.94 450.43 210.38 439.88 210.38C386.33 210.38 198.9 210.38 172.13 210.38ZM0 267.75C0 352.26 44.85 427.5 114.75 476.58C114.75 485.6 114.75 530.75 114.75 612C195.18 563.2 239.86 536.08 248.8 530.66C267.35 533.72 286.44 535.5 306 535.5C475.01 535.5 612 415.63 612 267.75C612 119.88 475.01 0 306 0C137.01 0 0 119.88 0 267.75ZM241.36 490.23C235.35 493.84 205.34 511.88 151.32 544.35C152.04 491.13 152.44 461.57 152.52 455.65C83.5 414.13 38.25 345.51 38.25 267.75C38.25 141.01 158.13 38.25 306 38.25C453.88 38.25 573.75 141.01 573.75 267.75C573.75 394.49 453.88 497.25 306 497.25C283.66 497.25 262.09 494.65 241.36 490.23Z" id="a1didJELFz"></path></defs><g><g><g><use xlink:href="#a1didJELFz" opacity="1" fill="#ffffff" fill-opacity="1"></use><g><use xlink:href="#a1didJELFz" opacity="1" fill-opacity="0" stroke="#000000" stroke-width="1" stroke-opacity="0"></use></g></g></g></g></svg>