<?xml version="1.0" encoding="UTF-8" standalone="no"?>
<!DOCTYPE svg PUBLIC "-//W3C//DTD SVG 1.1//EN" "http://www.w3.org/Graphics/SVG/1.1/DTD/svg11.dtd">
<svg version="1.1" xmlns="http://www.w3.org/2000/svg" xmlns:xlink="http://www.w3.org/1999/xlink" preserveAspectRatio="xMidYMid meet" viewBox="0 0 640 640" width="640" height="640"><defs><path d="M0 320C0 496.21 143.81 640 320 640C496.21 640 640 496.19 640 320C640 143.79 496.19 0 320 0C143.79 0 0 143.81 0 320ZM37.5 320C37.5 164.23 164.23 37.5 320 37.5C475.77 37.5 602.5 164.23 602.5 320C602.5 475.77 475.77 602.5 320 602.5C164.23 602.5 37.5 475.77 37.5 320Z" id="a3rbUtppGa"></path><path d="M226.25 505.03L503.8 320L226.25 134.97L226.25 505.03ZM263.75 205.03L436.2 320L263.75 434.97L263.75 205.03Z" id="a2cwAsKnfA"></path></defs><g><g><g><use xlink:href="#a3rbUtppGa" opacity="1" fill="#ffffff" fill-opacity="1"></use><g><use xlink:href="#a3rbUtppGa" opacity="1" fill-opacity="0" stroke="#000000" stroke-width="1" stroke-opacity="0"></use></g></g><g><use xlink:href="#a2cwAsKnfA" opacity="1" fill="#ffffff" fill-opacity="1"></use><g><use xlink:href="#a2cwAsKnfA" opacity="1" fill-opacity="0" stroke="#000000" stroke-width="1" stroke-opacity="0"></use></g></g></g></g></svg>