<?xml version="1.0" encoding="UTF-8" standalone="no"?>
<!DOCTYPE svg PUBLIC "-//W3C//DTD SVG 1.1//EN" "http://www.w3.org/Graphics/SVG/1.1/DTD/svg11.dtd">
<svg version="1.1" xmlns="http://www.w3.org/2000/svg" xmlns:xlink="http://www.w3.org/1999/xlink" preserveAspectRatio="xMidYMid meet" viewBox="0 0 640 640" width="640" height="640"><defs><path d="M320 441.88C302.74 441.88 288.75 455.87 288.75 473.13C288.75 490.38 302.74 504.38 320 504.38C337.26 504.38 351.25 490.38 351.25 473.13C351.25 455.87 337.26 441.88 320 441.88Z" id="c2vwrv49CU"></path><path d="M0 320C0 496.86 143.12 640 320 640C496.86 640 640 496.88 640 320C640 143.15 496.88 0 320 0C143.15 0 0 143.12 0 320ZM50 320C50 170.78 170.76 50 320 50C469.22 50 590 170.76 590 320C590 469.22 469.24 590 320 590C170.78 590 50 469.24 50 320Z" id="bblsurzoW"></path><path d="M220 260.63C220 274.43 231.19 285.63 245 285.63C258.81 285.63 270 274.43 270 260.63C270 233.05 292.43 210.63 320 210.63C347.57 210.63 370 233.05 370 260.63C370 288.2 347.57 310.63 320 310.63C306.19 310.63 295 321.82 295 335.63C295 341.88 295 391.88 295 398.13C295 411.93 306.19 423.13 320 423.13C333.81 423.13 345 411.93 345 398.13C345 394.06 345 361.53 345 357.46C388.08 346.33 420 307.14 420 260.63C420 205.49 375.14 160.63 320 160.63C264.86 160.63 220 205.49 220 260.63Z" id="adS4K5bRe"></path></defs><g><g><g><use xlink:href="#c2vwrv49CU" opacity="1" fill="#ffffff" fill-opacity="1"></use><g><use xlink:href="#c2vwrv49CU" opacity="1" fill-opacity="0" stroke="#000000" stroke-width="1" stroke-opacity="0"></use></g></g><g><use xlink:href="#bblsurzoW" opacity="1" fill="#ffffff" fill-opacity="1"></use><g><use xlink:href="#bblsurzoW" opacity="1" fill-opacity="0" stroke="#000000" stroke-width="1" stroke-opacity="0"></use></g></g><g><use xlink:href="#adS4K5bRe" opacity="1" fill="#ffffff" fill-opacity="1"></use><g><use xlink:href="#adS4K5bRe" opacity="1" fill-opacity="0" stroke="#000000" stroke-width="1" stroke-opacity="0"></use></g></g></g></g></svg>