<?xml version="1.0" encoding="iso-8859-1"?>
<!-- Generator: Adobe Illustrator 19.0.0, SVG Export Plug-In . SVG Version: 6.00 Build 0)  -->
<svg version="1.1" id="Capa_1" xmlns="http://www.w3.org/2000/svg" xmlns:xlink="http://www.w3.org/1999/xlink" x="0px" y="0px"
	 viewBox="0 0 512 512" style="enable-background:new 0 0 512 512;" xml:space="preserve">
<g>
	<path style="fill:#2C2F38;" d="M158.897,211.862c-3.293,0.005-6.314-1.822-7.839-4.74c-0.459-0.821-18.476-30.57-98.092-30.57
		c-4.875,0-8.828-3.952-8.828-8.828s3.952-8.828,8.828-8.828c92.69,0,112.993,38.55,113.876,40.192
		c1.371,2.744,1.22,6.003-0.401,8.608C164.821,210.302,161.964,211.879,158.897,211.862z"/>
	<circle style="fill:#FF5364;" cx="26.483" cy="167.724" r="26.483"/>
	<path style="fill:#2C2F38;" d="M353.103,211.765c-1.409,0.002-2.797-0.34-4.043-0.998c-4.261-2.186-5.972-7.391-3.84-11.679
		c0.821-1.642,21.124-40.192,113.814-40.192c4.875,0,8.828,3.952,8.828,8.828s-3.952,8.828-8.828,8.828
		c-80.331,0-97.986,30.279-98.11,30.588C359.345,209.981,356.355,211.75,353.103,211.765z"/>
	<circle style="fill:#FF5364;" cx="485.517" cy="167.724" r="26.483"/>
	<path style="fill:#B19046;" d="M353.103,194.56c53.548,34.004,112.613,66.754,130.101,214.696
		c2.201,16.503-3.584,33.069-15.581,44.615C441.644,477.44,382.058,512,256,512S70.374,477.449,44.385,453.879
		c-12-11.554-17.782-28.13-15.572-44.641c17.558-147.942,76.544-180.665,130.083-214.581L353.103,194.56z"/>
	<path style="fill:#F0C419;" d="M261.297,338.67l17.293,33.474c0.898,1.722,2.577,2.901,4.502,3.16l38.374,5.297
		c2.261,0.279,4.155,1.843,4.857,4.011c0.702,2.167,0.085,4.545-1.582,6.097l-27.533,25.6c-1.455,1.348-2.121,3.345-1.766,5.297
		l6.532,36.379c0.366,2.224-0.553,4.465-2.375,5.792s-4.236,1.515-6.241,0.484l-34.71-17.329c-1.714-0.857-3.732-0.857-5.447,0
		l-34.622,17.399c-2.005,1.03-4.419,0.843-6.241-0.484c-1.822-1.327-2.741-3.568-2.375-5.792l6.532-36.378
		c0.351-1.951-0.314-3.946-1.766-5.297l-27.533-25.6c-1.667-1.552-2.284-3.93-1.582-6.097c0.702-2.167,2.596-3.731,4.857-4.011
		l38.374-5.297c1.925-0.261,3.603-1.439,4.502-3.16l17.293-33.474c1.032-1.98,3.074-3.227,5.306-3.242
		C258.18,335.485,260.238,336.705,261.297,338.67z"/>
	<g>
		<path style="fill:#59474E;" d="M137.013,264.828c-3.261-0.003-6.254-1.803-7.786-4.681c-1.532-2.878-1.352-6.367,0.468-9.072
			c6.814-10.066,14.494-19.518,22.952-28.248c3.464-3.345,8.97-3.298,12.375,0.108c3.405,3.405,3.453,8.911,0.108,12.375
			c-7.64,7.929-14.592,16.493-20.78,25.6C142.711,263.357,139.959,264.827,137.013,264.828z"/>
		<path style="fill:#59474E;" d="M374.987,264.828c-2.946,0.006-5.701-1.457-7.345-3.902c-6.182-9.112-13.134-17.677-20.78-25.6
			c-3.345-3.464-3.298-8.97,0.108-12.375c3.405-3.405,8.911-3.453,12.375-0.108c8.458,8.73,16.138,18.182,22.952,28.248
			c1.809,2.704,1.984,6.183,0.456,9.055C381.224,263.019,378.24,264.817,374.987,264.828z"/>
		<path style="fill:#59474E;" d="M256,300.138c-4.875,0-8.828-3.952-8.828-8.828v-44.138c0-4.875,3.952-8.828,8.828-8.828
			s8.828,3.952,8.828,8.828v44.138C264.828,296.186,260.875,300.138,256,300.138z"/>
	</g>
	<path style="fill:#E4C05C;" d="M406.069,70.621c-1.682,39.035-21.211,75.132-52.966,97.898v52.701
		c0.033,3.31-1.81,6.353-4.758,7.857c-28.982,13.049-60.582,19.242-92.345,18.097c-31.763,1.145-63.363-5.048-92.345-18.097
		c-2.948-1.504-4.791-4.547-4.758-7.857v-52.701c-31.754-22.766-51.283-58.862-52.966-97.898H406.069z"/>
	<ellipse style="fill:#B19046;" cx="256" cy="70.621" rx="150.069" ry="70.621"/>
	<path style="fill:#2C2F38;" d="M256,105.931c-74.646,0-112.852-26.968-114.759-35.54C143.148,62.279,181.354,35.31,256,35.31
		s112.852,26.968,114.759,35.54C368.852,78.963,330.646,105.931,256,105.931z"/>
</g>
<g>
</g>
<g>
</g>
<g>
</g>
<g>
</g>
<g>
</g>
<g>
</g>
<g>
</g>
<g>
</g>
<g>
</g>
<g>
</g>
<g>
</g>
<g>
</g>
<g>
</g>
<g>
</g>
<g>
</g>
</svg>
