<?xml version="1.0" encoding="UTF-8" standalone="no"?>
<!DOCTYPE svg PUBLIC "-//W3C//DTD SVG 1.1//EN" "http://www.w3.org/Graphics/SVG/1.1/DTD/svg11.dtd">
<svg version="1.1" xmlns="http://www.w3.org/2000/svg" xmlns:xlink="http://www.w3.org/1999/xlink" preserveAspectRatio="xMidYMid meet" viewBox="0 0 640 640" width="640" height="640"><defs><path d="M352 448C352 448 352 448 352 448C352 486.4 352 507.73 352 512C352 512 352 512 352 512C313.6 512 292.27 512 288 512C288 512 288 512 288 512C288 473.6 288 452.27 288 448C288 448 288 448 288 448C326.4 448 347.73 448 352 448Z" id="c2xpB3fUO0"></path><path d="M0 320C0 496.73 143.27 640 320 640C496.73 640 640 496.73 640 320C640 143.27 496.73 0 320 0C143.27 0 0 143.27 0 320ZM57.92 320C57.92 175.26 175.26 57.92 320 57.92C464.67 58.09 581.9 175.33 582.08 320C582.08 464.74 464.74 582.08 320 582.08C175.26 582.08 57.92 464.74 57.92 320Z" id="g17XC56V28"></path><path d="M290.19 130.92C232.39 144.76 191.72 196.57 192 256C198.4 256 249.6 256 256 256C259 220.65 290.09 194.44 325.44 197.44C360.79 200.44 387 231.53 384 266.88C377.46 298.69 348.93 321.13 316.48 320C300.75 320 288 332.75 288 348.48C288 348.48 288 348.48 288 348.48L288 416L352 416C352 394.11 352 381.95 352 379.52C419.68 362.07 460.85 293.55 444.48 225.6C428.02 156.85 358.94 114.46 290.19 130.92Z" id="a1AOS2TBOj"></path></defs><g><g><g><use xlink:href="#c2xpB3fUO0" opacity="1" fill="#ffffff" fill-opacity="1"></use><g><use xlink:href="#c2xpB3fUO0" opacity="1" fill-opacity="0" stroke="#000000" stroke-width="1" stroke-opacity="0"></use></g></g><g><use xlink:href="#g17XC56V28" opacity="1" fill="#ffffff" fill-opacity="1"></use><g><use xlink:href="#g17XC56V28" opacity="1" fill-opacity="0" stroke="#000000" stroke-width="1" stroke-opacity="0"></use></g></g><g><use xlink:href="#a1AOS2TBOj" opacity="1" fill="#ffffff" fill-opacity="1"></use><g><use xlink:href="#a1AOS2TBOj" opacity="1" fill-opacity="0" stroke="#000000" stroke-width="1" stroke-opacity="0"></use></g></g></g></g></svg>