<?xml version="1.0" encoding="UTF-8" standalone="no"?>
<!DOCTYPE svg PUBLIC "-//W3C//DTD SVG 1.1//EN" "http://www.w3.org/Graphics/SVG/1.1/DTD/svg11.dtd">
<svg version="1.1" xmlns="http://www.w3.org/2000/svg" xmlns:xlink="http://www.w3.org/1999/xlink" preserveAspectRatio="xMidYMid meet" viewBox="0 0 640 640" width="640" height="640"><defs><path d="M0 320C0 496.21 143.81 640 320 640C496.21 640 640 496.19 640 320C640 143.79 496.19 0 320 0C143.79 0 0 143.81 0 320ZM37.5 320C37.5 164.23 164.23 37.5 320 37.5C475.77 37.5 602.5 164.23 602.5 320C602.5 475.77 475.77 602.5 320 602.5C164.23 602.5 37.5 475.77 37.5 320Z" id="e2eyMVLvzN"></path><path d="M537.51 207.5L395 93.49L395 151.25C387.1 151.25 382.71 151.25 381.84 151.25C338.27 151.25 297.38 173.16 273.13 208.96C248.87 173.16 207.98 151.25 164.41 151.25C161.04 151.25 144.15 151.25 113.75 151.25L113.75 263.75C144.15 263.75 161.04 263.75 164.41 263.75C171.05 263.75 177.26 267.31 180.61 273.05C182.44 276.18 191.57 291.83 208 320C191.57 348.17 182.44 363.81 180.62 366.94C177.27 372.69 171.05 376.25 164.41 376.25C161.04 376.25 144.15 376.25 113.75 376.25L113.75 488.75C144.15 488.75 161.04 488.75 164.41 488.75C207.98 488.75 248.87 466.84 273.13 431.04C297.38 466.84 338.27 488.75 381.84 488.75C382.71 488.75 387.1 488.75 395 488.75L395 546.51L537.51 432.5L396.89 320L537.51 207.5ZM213 254.15C202.95 236.94 184.34 226.25 164.41 226.25C163.54 226.25 159.15 226.25 151.25 226.25L151.25 188.75C159.15 188.75 163.54 188.75 164.41 188.75C197.63 188.75 228.66 206.57 245.4 235.26C245.8 235.95 247.8 239.39 251.42 245.59L229.71 282.79C220.8 267.52 215.23 257.97 213 254.15ZM245.4 404.74C228.66 433.43 197.63 451.25 164.41 451.25C163.54 451.25 159.15 451.25 151.25 451.25L151.25 413.75C159.15 413.75 163.54 413.75 164.41 413.75C184.34 413.75 202.95 403.06 213 385.84C221.79 370.79 292.07 250.32 300.85 235.26C317.59 206.57 348.62 188.75 381.84 188.75C385.21 188.75 402.1 188.75 432.5 188.75L432.5 171.51L477.49 207.5L432.5 243.49L432.5 226.25C402.1 226.25 385.21 226.25 381.84 226.25C361.91 226.25 343.3 236.94 333.25 254.16C315.68 284.27 262.97 374.62 245.4 404.74ZM432.5 396.51L477.49 432.5L432.5 468.49L432.5 451.25C402.1 451.25 385.21 451.25 381.84 451.25C348.62 451.25 317.59 433.43 300.85 404.74C300.45 404.05 298.45 400.61 294.83 394.41L316.54 357.21C326.57 374.39 332.14 383.94 333.25 385.85C343.3 403.06 361.91 413.75 381.84 413.75C385.21 413.75 402.1 413.75 432.5 413.75L432.5 396.51ZM395 376.25C387.1 376.25 382.71 376.25 381.84 376.25C375.2 376.25 368.99 372.69 365.64 366.95C363.81 363.82 354.68 348.17 338.25 320C354.68 291.83 363.81 276.19 365.63 273.06C368.99 267.31 375.2 263.75 381.84 263.75C382.71 263.75 387.1 263.75 395 263.75L395 376.25Z" id="abMRYFjAV"></path></defs><g><g><g><use xlink:href="#e2eyMVLvzN" opacity="1" fill="#ffffff" fill-opacity="1"></use><g><use xlink:href="#e2eyMVLvzN" opacity="1" fill-opacity="0" stroke="#000000" stroke-width="1" stroke-opacity="0"></use></g></g><g><use xlink:href="#abMRYFjAV" opacity="1" fill="#ffffff" fill-opacity="1"></use><g><use xlink:href="#abMRYFjAV" opacity="1" fill-opacity="0" stroke="#000000" stroke-width="1" stroke-opacity="0"></use></g></g></g></g></svg>