<?xml version="1.0" encoding="UTF-8" standalone="no"?>
<!DOCTYPE svg PUBLIC "-//W3C//DTD SVG 1.1//EN" "http://www.w3.org/Graphics/SVG/1.1/DTD/svg11.dtd">
<svg version="1.1" xmlns="http://www.w3.org/2000/svg" xmlns:xlink="http://www.w3.org/1999/xlink" preserveAspectRatio="xMidYMid meet" viewBox="0 0 640 640" width="640" height="640"><defs><path d="M0 320C0 143.79 143.81 0 320 0C496.21 0 640 143.81 640 320C640 496.21 496.19 640 320 640C143.79 640 0 496.19 0 320ZM37.5 320C37.5 475.77 164.23 602.5 320 602.5C475.77 602.5 602.5 475.77 602.5 320C602.5 164.23 475.77 37.5 320 37.5C164.23 37.5 37.5 164.23 37.5 320Z" id="a1gwAy1h4x"></path><path d="M451.25 451.25L188.75 451.25L188.75 188.75L451.25 188.75L451.25 451.25ZM226.25 413.75L413.75 413.75L413.75 226.25L226.25 226.25L226.25 413.75Z" id="c3fcZiQnf"></path></defs><g><g><g><use xlink:href="#a1gwAy1h4x" opacity="1" fill="#ffffff" fill-opacity="1"></use><g><use xlink:href="#a1gwAy1h4x" opacity="1" fill-opacity="0" stroke="#000000" stroke-width="1" stroke-opacity="0"></use></g></g><g><use xlink:href="#c3fcZiQnf" opacity="1" fill="#ffffff" fill-opacity="1"></use><g><use xlink:href="#c3fcZiQnf" opacity="1" fill-opacity="0" stroke="#000000" stroke-width="1" stroke-opacity="0"></use></g></g></g></g></svg>