<?xml version="1.0" encoding="UTF-8" standalone="no"?>
<!DOCTYPE svg PUBLIC "-//W3C//DTD SVG 1.1//EN" "http://www.w3.org/Graphics/SVG/1.1/DTD/svg11.dtd">
<svg version="1.1" xmlns="http://www.w3.org/2000/svg" xmlns:xlink="http://www.w3.org/1999/xlink" preserveAspectRatio="xMidYMid meet" viewBox="0 0 640 640" width="640" height="640"><defs><path d="M0 320C0 496.21 143.81 640 320 640C496.21 640 640 496.19 640 320C640 143.79 496.19 0 320 0C143.79 0 0 143.81 0 320ZM37.5 320C37.5 164.23 164.23 37.5 320 37.5C475.77 37.5 602.5 164.23 602.5 320C602.5 475.77 475.77 602.5 320 602.5C164.23 602.5 37.5 475.77 37.5 320Z" id="b2lUnaD0LF"></path><path d="M376.25 151.25C286.25 151.25 236.25 151.25 226.25 151.25C174.56 151.25 132.5 193.31 132.5 245C132.5 253.7 132.5 297.19 132.5 375.47L245 285.47L245 263.75L376.25 263.75L376.25 321.51L518.76 207.5L376.25 93.49L376.25 151.25ZM413.75 171.51L458.74 207.5L413.75 243.49L413.75 226.25L207.5 226.25L207.5 267.45L170 297.45C170 265.98 170 248.5 170 245C170 213.98 195.23 188.75 226.25 188.75C238.75 188.75 301.25 188.75 413.75 188.75L413.75 171.51Z" id="aS9UanEFe"></path><path d="M395 376.25L263.75 376.25L263.75 318.49L121.24 432.5L263.75 546.51L263.75 488.75C353.75 488.75 403.75 488.75 413.75 488.75C465.44 488.75 507.5 446.69 507.5 395C507.5 386.3 507.5 342.81 507.5 264.54L395 354.53L395 376.25ZM432.5 372.56L470 342.56C470 374.02 470 391.5 470 395C470 426.02 444.77 451.25 413.75 451.25C401.25 451.25 338.75 451.25 226.25 451.25L226.25 468.49L181.26 432.5L226.25 396.51L226.25 413.75L432.5 413.75L432.5 372.56Z" id="bOkRyTGFX"></path></defs><g><g><g><use xlink:href="#b2lUnaD0LF" opacity="1" fill="#ffffff" fill-opacity="1"></use><g><use xlink:href="#b2lUnaD0LF" opacity="1" fill-opacity="0" stroke="#000000" stroke-width="1" stroke-opacity="0"></use></g></g><g><use xlink:href="#aS9UanEFe" opacity="1" fill="#ffffff" fill-opacity="1"></use><g><use xlink:href="#aS9UanEFe" opacity="1" fill-opacity="0" stroke="#000000" stroke-width="1" stroke-opacity="0"></use></g></g><g><use xlink:href="#bOkRyTGFX" opacity="1" fill="#ffffff" fill-opacity="1"></use><g><use xlink:href="#bOkRyTGFX" opacity="1" fill-opacity="0" stroke="#000000" stroke-width="1" stroke-opacity="0"></use></g></g></g></g></svg>