<?xml version="1.0" standalone="no"?>
<!DOCTYPE svg PUBLIC "-//W3C//DTD SVG 20010904//EN"
 "http://www.w3.org/TR/2001/REC-SVG-20010904/DTD/svg10.dtd">
<svg version="1.0" xmlns="http://www.w3.org/2000/svg"
 width="120.000000pt" height="120.000000pt" viewBox="0 0 120.000000 120.000000"
 preserveAspectRatio="xMidYMid meet">
<metadata>
Created by potrace 1.11, written by Peter Selinger 2001-2013
</metadata>
<g transform="translate(0.000000,120.000000) scale(0.100000,-0.100000)"
fill="#000000" stroke="none">
<path d="M70 1180 c-11 -11 -25 -20 -31 -20 -8 0 -7 -5 1 -15 11 -13 10 -14
-5 -9 -13 5 -16 4 -11 -4 4 -7 0 -19 -8 -27 -13 -14 -15 -78 -16 -485 0 -373
2 -470 12 -470 9 0 8 -3 -2 -10 -13 -9 -13 -12 1 -23 9 -6 14 -18 11 -26 -3
-8 0 -11 7 -7 7 5 9 1 5 -8 -6 -14 5 -21 28 -17 4 0 5 -6 2 -14 -4 -9 0 -15
10 -15 9 0 16 -5 16 -11 0 -5 4 -8 9 -4 5 3 12 1 16 -4 3 -7 179 -10 471 -11
515 0 553 3 545 52 0 4 6 5 14 2 8 -4 15 -1 15 6 0 6 9 23 20 37 19 25 20 41
20 505 0 400 -2 484 -15 514 -9 23 -19 33 -26 28 -7 -4 -9 -3 -6 3 3 5 -4 18
-16 29 -21 18 -45 19 -534 22 -504 3 -513 2 -533 -18z"/>
</g>
</svg>
