<?xml version="1.0" encoding="UTF-8" standalone="no"?>
<!DOCTYPE svg PUBLIC "-//W3C//DTD SVG 1.1//EN" "http://www.w3.org/Graphics/SVG/1.1/DTD/svg11.dtd">
<svg version="1.1" xmlns="http://www.w3.org/2000/svg" xmlns:xlink="http://www.w3.org/1999/xlink" preserveAspectRatio="xMidYMid meet" viewBox="0 0 640 640" width="640" height="640"><defs><path d="M0 320C0 496.22 143.81 640 320 640C496.21 640 640 496.19 640 320C640 143.78 496.19 0 320 0C143.79 0 0 143.81 0 320ZM37.5 320C37.5 164.23 164.23 37.5 320 37.5C475.77 37.5 602.5 164.23 602.5 320C602.5 475.77 475.77 602.5 320 602.5C164.23 602.5 37.5 475.77 37.5 320Z" id="a1BSkKcq1l"></path><path d="M320 170L320 282.5L170 170L170 470L320 357.5L320 470L520 320L320 170ZM207.5 395L207.5 245L307.5 320L207.5 395ZM357.5 245L457.5 320L357.5 395L357.5 245Z" id="d1ldWoZWIR"></path></defs><g><g><g><use xlink:href="#a1BSkKcq1l" opacity="1" fill="#ffffff" fill-opacity="1"></use><g><use xlink:href="#a1BSkKcq1l" opacity="1" fill-opacity="0" stroke="#000000" stroke-width="1" stroke-opacity="0"></use></g></g><g><use xlink:href="#d1ldWoZWIR" opacity="1" fill="#ffffff" fill-opacity="1"></use><g><use xlink:href="#d1ldWoZWIR" opacity="1" fill-opacity="0" stroke="#000000" stroke-width="1" stroke-opacity="0"></use></g></g></g></g></svg>